<?xml version="1.0" encoding="UTF-8" standalone="no"?>
<!-- Created with Inkscape (http://www.inkscape.org/) -->

<svg
   width="22.000788mm"
   height="17.913862mm"
   viewBox="0 0 22.000788 17.913862"
   version="1.1"
   id="svg1"
   inkscape:version="1.3.2 (091e20e, 2023-11-25)"
   sodipodi:docname="ace_logo.svg"
   inkscape:export-filename="ace_logo.svg"
   inkscape:export-xdpi="96"
   inkscape:export-ydpi="96"
   xmlns:inkscape="http://www.inkscape.org/namespaces/inkscape"
   xmlns:sodipodi="http://sodipodi.sourceforge.net/DTD/sodipodi-0.dtd"
   xmlns="http://www.w3.org/2000/svg"
   xmlns:svg="http://www.w3.org/2000/svg">
  <sodipodi:namedview
     id="namedview1"
     pagecolor="#ffffff"
     bordercolor="#000000"
     borderopacity="0.25"
     inkscape:showpageshadow="2"
     inkscape:pageopacity="0.0"
     inkscape:pagecheckerboard="0"
     inkscape:deskcolor="#d1d1d1"
     inkscape:document-units="mm"
     inkscape:zoom="6.4666667"
     inkscape:cx="98.737113"
     inkscape:cy="63.092784"
     inkscape:window-width="1920"
     inkscape:window-height="993"
     inkscape:window-x="0"
     inkscape:window-y="0"
     inkscape:window-maximized="1"
     inkscape:current-layer="layer1" />
  <defs
     id="defs1" />
  <g
     inkscape:label="Layer 1"
     inkscape:groupmode="layer"
     id="layer1"
     transform="translate(-17.586932,-3.1473099)">
    <path
       style="fill:#104bef;fill-opacity:1;stroke-width:0.264583"
       id="path3"
       d="m 22.135855,19.048425 c 0.01224,-0.06906 0.01643,-0.14004 0.03671,-0.207181 0.137247,-0.454498 0.413058,-0.912212 0.656041,-1.313515 1.494414,-2.468128 -0.827349,1.42045 0.757831,-1.2421 0.427052,-0.935886 0.348385,-0.736311 0.749272,-1.732782 0.130641,-0.324729 0.263252,-0.648781 0.384798,-0.977021 0.129515,-0.34976 0.242236,-0.705536 0.368237,-1.056576 0.271924,-0.757589 0.466337,-1.253619 0.752385,-2.00027 0.113154,-0.303862 0.231875,-0.6057099 0.339465,-0.9115873 0.104653,-0.2975316 0.196951,-0.5992701 0.297154,-0.8983302 0.0927,-0.2766769 0.185875,-0.5532067 0.281559,-0.8288671 0.210434,-0.6062525 0.437263,-1.2048622 0.672018,-1.8019591 0.860843,-2.1077462 0.814128,-0.8277852 -3.026626,-2.9309263 -0.0072,0.120705 -0.04675,0.2438082 -0.02174,0.3621151 0.06546,0.3095934 0.594879,1.4915134 0.660707,1.6413093 0.362574,0.8250608 0.756119,1.7015886 1.159235,2.5054735 0.232014,0.4626763 0.481205,0.9165373 0.721809,1.3748062 0.987515,1.8594309 2.04008,3.6840979 3.165454,5.4634539 0.227258,0.364129 0.473011,0.715673 0.720077,1.066324 0.674875,1.183173 0.03289,0.07467 3.454878,1.981061 0.01384,0.0077 0.03225,-0.0049 0.04752,-6.61e-4 0.02614,0.0073 0.07585,0.07574 0.05226,0.06236 -1.110491,-0.630175 -2.213057,-1.274212 -3.319587,-1.911318 0.02492,0.0114 0.0511,0.02041 0.07478,0.03421 0.01931,0.01125 0.149649,0.107616 0.162616,0.116897 0.07962,0.05698 0.160203,0.112633 0.239932,0.169461 0.136475,0.102471 0.263057,0.217281 0.392465,0.328422 0.946139,1.000077 2.178298,2.196908 3.583603,2.106341 0.0086,0.0053 0.01823,0.009 0.02572,0.01577 0.0096,0.0086 0.03585,0.03597 0.02471,0.02958 -1.113404,-0.638607 -2.22345,-1.283061 -3.333546,-1.927403 -0.01622,-0.0094 0.03508,0.01348 0.05155,0.02241 0.03109,0.01685 0.09096,0.05958 0.119515,0.07938 0.01786,0.01375 0.03653,0.02652 0.0536,0.04124 0.01775,0.01532 0.03417,0.03217 0.05076,0.04876 0.01561,0.01562 0.02678,0.03668 0.04584,0.04784 3.385986,1.982988 2.103622,1.846259 3.47627,1.982787 0,0 -3.090484,-2.435532 -3.090484,-2.435532 v 0 c -0.949388,-0.924193 -0.08219,-0.07419 3.268745,1.883793 0.01879,0.01098 -0.04137,-0.01395 -0.06083,-0.02369 -0.02011,-0.01006 -0.03946,-0.02187 -0.05735,-0.03548 -0.01897,-0.01444 -0.03518,-0.0322 -0.05277,-0.0483 -0.0078,-0.0075 -0.129974,-0.131941 -0.13126,-0.132694 -5.699797,-3.339255 -2.114738,-1.578606 -3.50569,-2.004934 -0.750845,-1.092166 -0.04021,-0.05119 3.354393,1.918762 0.01175,0.0068 -0.02681,-0.005 -0.03967,-0.0094 -0.0597,-0.02032 -0.111932,-0.05741 -0.162899,-0.09334 -0.136213,-0.115256 -0.27614,-0.22598 -0.405511,-0.349078 -0.07588,-0.06612 -0.153053,-0.129237 -0.234757,-0.18814 -0.03376,-0.02434 -0.107233,-0.07149 -0.139091,-0.101586 -0.01765,-0.01666 -0.03145,-0.03695 -0.04718,-0.05543 -1.140671,-0.658402 -2.281343,-1.316805 -3.422012,-1.975207 -0.03632,-0.0018 -0.07454,0.0048 -0.108839,-0.0073 -0.01087,-0.0038 -0.03711,-0.02722 -0.02708,-0.02152 1.118727,0.635205 2.239518,1.266841 3.353541,1.91026 0.02164,0.0125 -0.04889,-0.01049 -0.07333,-0.01573 -0.250658,-0.123745 -0.45384,-0.312179 -0.655502,-0.503501 C 33.452017,16.19291 33.377568,16.106686 33.045606,15.761952 32.572201,15.237613 32.381973,15.040274 31.918325,14.463305 30.793108,13.063073 29.800076,11.557703 28.976084,9.9606607 28.777546,9.5266937 28.5614,9.1003571 28.380465,8.6587601 28.104915,7.9862406 27.818506,7.1458925 27.698422,6.4166085 c -0.0908,-0.5514178 -0.07925,-0.6930837 0.03632,-1.1541278 0.0016,-0.00616 0.01183,-0.00461 0.01775,-0.00692 -1.13135,-0.6455238 -2.262701,-1.2910478 -3.394051,-1.9365716 0.01924,0.018854 0.04696,0.031868 0.05773,0.056559 0.01922,0.044042 0.02235,0.093648 0.02861,0.1412912 0.0416,0.3164451 0.02075,0.6378446 0.0042,0.9549226 -0.04645,0.5054369 -0.05413,0.6838479 -0.143279,1.2083073 -0.09372,0.5513395 -0.217968,1.0999399 -0.362604,1.6399404 -0.16649,0.6215989 -0.372286,1.2322302 -0.536284,1.854545 -0.103389,0.3325328 -0.199713,0.667345 -0.310168,0.9975984 -0.286898,0.857811 -0.429937,1.215813 -0.800835,2.040916 -0.392239,0.87258 -0.823638,1.730159 -1.400043,2.498303 -0.146446,0.20243 -0.287582,0.408809 -0.439339,0.607289 -0.277927,0.363495 -0.550286,0.683484 -0.869998,1.009333 -0.123502,0.125874 -0.254381,0.24434 -0.384412,0.363458 -0.09064,0.08303 -0.180872,0.166889 -0.277485,0.242891 -0.05863,0.04612 -0.124795,0.08177 -0.187192,0.122652 z" />
    <path
       style="fill:#c00202;fill-opacity:1;stroke-width:0.264583"
       id="path4"
       d="M 20.689151,9.0859254 C 19.67038,8.4964483 18.652125,7.9060798 17.632839,7.3174941 c -0.228957,-0.132211 0.461453,0.2586487 0.685321,0.3993049 0.279021,0.1753092 0.553428,0.3581821 0.822671,0.548167 0.66847,0.4716899 1.271455,0.9419711 1.888217,1.4822839 0.35357,0.3097441 0.691323,0.6370901 1.036984,0.9556351 1.259739,1.240255 2.39878,2.601315 3.408323,4.052067 0.391209,0.562182 0.499883,0.753692 0.837522,1.302422 0.225365,0.408104 0.488798,0.803849 0.644373,1.246509 0.01945,0.04286 0.02109,0.09439 0.04449,0.135418 0.02344,0.04109 0.142042,0.178703 0.156729,0.196312 0.191804,0.238807 0.360333,0.494778 0.54052,0.74218 0.06978,0.07491 0.09785,0.17997 0.15962,0.259717 0.0173,0.02233 0.03801,0.04179 0.05701,0.06269 0.175856,0.178582 0.317868,0.385023 0.45656,0.592607 0.04561,0.0656 0.09002,0.131988 0.133318,0.199128 0,0 3.587486,1.569237 3.587486,1.569237 v 0 c -0.05605,-0.08181 -0.113615,-0.16255 -0.177364,-0.238658 -0.149323,-0.183798 -0.282281,-0.378627 -0.400407,-0.584021 -0.03594,-0.05423 -0.06604,-0.07665 -0.106685,-0.124536 -0.05779,-0.06808 -0.107156,-0.143024 -0.162928,-0.212674 -0.191145,-0.238289 -0.406448,-0.459245 -0.558006,-0.72718 -0.02304,-0.04691 -0.03822,-0.09931 -0.07166,-0.139485 -0.0058,-0.007 -0.0172,-0.0069 -0.02408,-0.01286 -0.03738,-0.03253 -0.03608,-0.09526 -0.07333,-0.127884 -0.103624,-0.151671 -0.220488,-0.29005 -0.340003,-0.429725 -0.338987,-0.396161 -0.685223,-0.78609 -1.024811,-1.181733 C 28.62925,16.672056 28.414289,16.423527 27.873354,15.78284 26.699159,14.392108 25.553608,12.976312 24.322821,11.634333 24.033563,11.333827 23.752306,11.025408 23.455047,10.732814 22.985573,10.270707 22.442703,9.8009664 21.938052,9.3733428 21.758638,9.2213138 21.573616,9.07597 21.394698,8.923357 21.293458,8.8370017 21.211485,8.7256227 21.097737,8.6565715 19.952852,7.9615656 18.782771,7.3089404 17.625288,6.6351247 Z" />
    <path
       style="fill:#b3674c;fill-opacity:1;stroke-width:0.264583"
       id="path5"
       d="m 26.545111,19.395354 c 0.09854,-0.714289 0.110313,-1.019426 0.453721,-1.805924 0.23309,-0.533834 0.526034,-1.041304 0.835064,-1.535073 0.854906,-1.365963 1.488337,-2.135107 2.622281,-3.282849 0.467074,-0.472755 0.976185,-0.902044 1.464275,-1.353066 0.4625,-0.356798 0.938401,-0.993788 1.414212,-1.332627 0.986128,-0.7022534 2.031126,-1.0564482 3.168639,-1.4789635 0.588864,-0.2187262 0.77638,-0.2384835 1.356026,-0.3605199 0.544994,-0.089258 1.099691,-0.1052131 1.637282,0.0292 l 0.09111,0.028287 -3.126642,-2.3352376 v 0 c -0.02463,0.00214 -0.04926,0.00427 -0.07389,0.00641 -0.453321,0.051684 -0.887391,0.1926201 -1.291725,0.4056526 -0.154191,0.085671 -0.312033,0.1650809 -0.462579,0.2570136 -0.432768,0.2642803 -0.895987,0.5898266 -1.277371,0.9175339 -1.04888,0.90126 -1.937091,1.971412 -2.873584,2.9826209 -0.38154,0.421119 -2.407827,2.663806 -2.755723,3.021328 -0.502642,0.516556 -1.029417,1.009156 -1.551941,1.505591 -0.441997,0.419927 -0.873548,0.85245 -1.341439,1.243318 -0.693962,0.579724 -0.983502,0.730641 -1.644502,1.124359 z"
       sodipodi:nodetypes="cssscssccccsccsscssscc" />
  </g>
</svg>